<mxfile host="app.diagrams.net" modified="2024-03-02T05:53:56.243Z" agent="Mozilla/5.0 (Windows NT 10.0; Win64; x64) AppleWebKit/537.36 (KHTML, like Gecko) Chrome/122.0.0.0 Safari/537.36 Edg/122.0.0.0" etag="CaAPrvuBx-1cNioOX48L" version="24.0.0" type="github">
  <diagram name="第 1 页" id="eyKSeo7q9MU-SdSrNM8-">
    <mxGraphModel dx="620" dy="946" grid="1" gridSize="10" guides="1" tooltips="1" connect="1" arrows="1" fold="1" page="1" pageScale="1" pageWidth="827" pageHeight="1169" math="0" shadow="0">
      <root>
        <mxCell id="0" />
        <mxCell id="1" parent="0" />
        <mxCell id="f27bBOhLKwtl1tu7MUCF-5" style="edgeStyle=orthogonalEdgeStyle;rounded=0;orthogonalLoop=1;jettySize=auto;html=1;entryX=0;entryY=0.5;entryDx=0;entryDy=0;strokeWidth=2;" edge="1" parent="1" source="f27bBOhLKwtl1tu7MUCF-1" target="f27bBOhLKwtl1tu7MUCF-3">
          <mxGeometry relative="1" as="geometry" />
        </mxCell>
        <mxCell id="f27bBOhLKwtl1tu7MUCF-1" value="" style="rounded=0;whiteSpace=wrap;html=1;" vertex="1" parent="1">
          <mxGeometry x="240" y="350" width="80" height="100" as="geometry" />
        </mxCell>
        <mxCell id="f27bBOhLKwtl1tu7MUCF-2" value="&lt;font style=&quot;font-size: 19px;&quot;&gt;查询任务队列&lt;/font&gt;" style="text;html=1;align=center;verticalAlign=middle;whiteSpace=wrap;rounded=0;" vertex="1" parent="1">
          <mxGeometry x="260" y="360" width="40" height="80" as="geometry" />
        </mxCell>
        <mxCell id="f27bBOhLKwtl1tu7MUCF-10" style="edgeStyle=orthogonalEdgeStyle;rounded=0;orthogonalLoop=1;jettySize=auto;html=1;entryX=0;entryY=0.5;entryDx=0;entryDy=0;startArrow=classic;startFill=1;strokeWidth=2;" edge="1" parent="1" source="f27bBOhLKwtl1tu7MUCF-3" target="f27bBOhLKwtl1tu7MUCF-8">
          <mxGeometry relative="1" as="geometry" />
        </mxCell>
        <mxCell id="f27bBOhLKwtl1tu7MUCF-3" value="" style="rounded=0;whiteSpace=wrap;html=1;" vertex="1" parent="1">
          <mxGeometry x="349" y="350" width="191" height="100" as="geometry" />
        </mxCell>
        <mxCell id="f27bBOhLKwtl1tu7MUCF-4" value="&lt;font style=&quot;font-size: 16px;&quot;&gt;&lt;b&gt;控制器&lt;/b&gt;&lt;/font&gt;" style="text;html=1;align=center;verticalAlign=middle;whiteSpace=wrap;rounded=0;" vertex="1" parent="1">
          <mxGeometry x="406.5" y="423" width="76" height="30" as="geometry" />
        </mxCell>
        <mxCell id="f27bBOhLKwtl1tu7MUCF-6" value="&lt;font style=&quot;font-size: 16px;&quot;&gt;模型选择&lt;/font&gt;" style="rounded=0;whiteSpace=wrap;html=1;fillColor=#dae8fc;strokeColor=#6c8ebf;" vertex="1" parent="1">
          <mxGeometry x="360" y="382.5" width="88" height="35" as="geometry" />
        </mxCell>
        <mxCell id="f27bBOhLKwtl1tu7MUCF-7" value="&lt;font style=&quot;font-size: 16px;&quot;&gt;推理控制逻辑&lt;/font&gt;" style="rounded=0;whiteSpace=wrap;html=1;dashed=1;strokeWidth=2;fillColor=#dae8fc;strokeColor=#6c8ebf;" vertex="1" parent="1">
          <mxGeometry x="460" y="375" width="70" height="50" as="geometry" />
        </mxCell>
        <mxCell id="f27bBOhLKwtl1tu7MUCF-8" value="" style="rounded=0;whiteSpace=wrap;html=1;" vertex="1" parent="1">
          <mxGeometry x="570" y="350" width="191" height="100" as="geometry" />
        </mxCell>
        <mxCell id="f27bBOhLKwtl1tu7MUCF-11" value="&lt;font style=&quot;font-size: 16px;&quot;&gt;&lt;b&gt;模型仓库&lt;/b&gt;&lt;/font&gt;" style="text;html=1;align=center;verticalAlign=middle;whiteSpace=wrap;rounded=0;" vertex="1" parent="1">
          <mxGeometry x="627.5" y="423" width="76" height="30" as="geometry" />
        </mxCell>
        <mxCell id="f27bBOhLKwtl1tu7MUCF-12" value="&lt;font style=&quot;font-size: 16px;&quot;&gt;模型存储&lt;/font&gt;" style="rounded=0;whiteSpace=wrap;html=1;" vertex="1" parent="1">
          <mxGeometry x="580" y="360" width="80" height="20" as="geometry" />
        </mxCell>
        <mxCell id="f27bBOhLKwtl1tu7MUCF-13" value="&lt;font style=&quot;font-size: 16px;&quot;&gt;候选&lt;/font&gt;&lt;div&gt;&lt;font style=&quot;font-size: 16px;&quot;&gt;元数据&lt;/font&gt;&lt;/div&gt;" style="rounded=0;whiteSpace=wrap;html=1;" vertex="1" parent="1">
          <mxGeometry x="580" y="387.5" width="80" height="37.5" as="geometry" />
        </mxCell>
        <mxCell id="f27bBOhLKwtl1tu7MUCF-14" value="&lt;font style=&quot;font-size: 16px;&quot;&gt;模型感知&lt;/font&gt;&lt;div style=&quot;font-size: 16px;&quot;&gt;&lt;font style=&quot;font-size: 16px;&quot;&gt;离线分析&lt;/font&gt;&lt;/div&gt;" style="rounded=0;whiteSpace=wrap;html=1;fillColor=#dae8fc;strokeColor=#6c8ebf;" vertex="1" parent="1">
          <mxGeometry x="670" y="360" width="70" height="65" as="geometry" />
        </mxCell>
        <mxCell id="f27bBOhLKwtl1tu7MUCF-15" value="" style="rounded=0;whiteSpace=wrap;html=1;" vertex="1" parent="1">
          <mxGeometry x="240" y="470" width="80" height="100" as="geometry" />
        </mxCell>
        <mxCell id="f27bBOhLKwtl1tu7MUCF-16" value="&lt;font style=&quot;font-size: 19px;&quot;&gt;返回推理结果&lt;/font&gt;" style="text;html=1;align=center;verticalAlign=middle;whiteSpace=wrap;rounded=0;" vertex="1" parent="1">
          <mxGeometry x="260" y="480" width="40" height="80" as="geometry" />
        </mxCell>
        <mxCell id="f27bBOhLKwtl1tu7MUCF-35" style="edgeStyle=orthogonalEdgeStyle;rounded=0;orthogonalLoop=1;jettySize=auto;html=1;entryX=1;entryY=0.5;entryDx=0;entryDy=0;strokeWidth=2;" edge="1" parent="1" source="f27bBOhLKwtl1tu7MUCF-27" target="f27bBOhLKwtl1tu7MUCF-15">
          <mxGeometry relative="1" as="geometry" />
        </mxCell>
        <mxCell id="f27bBOhLKwtl1tu7MUCF-27" value="" style="rounded=0;whiteSpace=wrap;html=1;" vertex="1" parent="1">
          <mxGeometry x="350" y="470" width="410" height="100" as="geometry" />
        </mxCell>
        <mxCell id="f27bBOhLKwtl1tu7MUCF-28" value="" style="rounded=0;whiteSpace=wrap;html=1;dashed=1;strokeWidth=2;fillColor=#dae8fc;strokeColor=#6c8ebf;" vertex="1" parent="1">
          <mxGeometry x="360" y="480" width="260" height="60" as="geometry" />
        </mxCell>
        <mxCell id="f27bBOhLKwtl1tu7MUCF-29" value="&lt;font style=&quot;font-size: 16px;&quot;&gt;模型1&lt;/font&gt;&lt;div style=&quot;font-size: 16px;&quot;&gt;&lt;font style=&quot;font-size: 16px;&quot;&gt;处理&lt;/font&gt;&lt;/div&gt;" style="rounded=1;whiteSpace=wrap;html=1;" vertex="1" parent="1">
          <mxGeometry x="370" y="485" width="90" height="50" as="geometry" />
        </mxCell>
        <mxCell id="f27bBOhLKwtl1tu7MUCF-30" style="edgeStyle=orthogonalEdgeStyle;rounded=0;orthogonalLoop=1;jettySize=auto;html=1;exitX=0.5;exitY=1;exitDx=0;exitDy=0;entryX=0.354;entryY=0;entryDx=0;entryDy=0;entryPerimeter=0;startArrow=classic;startFill=1;strokeWidth=2;" edge="1" parent="1" source="f27bBOhLKwtl1tu7MUCF-7" target="f27bBOhLKwtl1tu7MUCF-27">
          <mxGeometry relative="1" as="geometry" />
        </mxCell>
        <mxCell id="f27bBOhLKwtl1tu7MUCF-31" value="&lt;span style=&quot;font-size: 16px;&quot;&gt;&lt;b&gt;工作节点&lt;/b&gt;&lt;/span&gt;" style="text;html=1;align=center;verticalAlign=middle;whiteSpace=wrap;rounded=0;" vertex="1" parent="1">
          <mxGeometry x="517" y="543" width="76" height="30" as="geometry" />
        </mxCell>
        <mxCell id="f27bBOhLKwtl1tu7MUCF-32" value="&lt;font style=&quot;font-size: 16px;&quot;&gt;模型1&lt;/font&gt;&lt;div style=&quot;font-size: 16px;&quot;&gt;&lt;font style=&quot;font-size: 16px;&quot;&gt;处理&lt;/font&gt;&lt;/div&gt;" style="rounded=1;whiteSpace=wrap;html=1;" vertex="1" parent="1">
          <mxGeometry x="470" y="485" width="90" height="50" as="geometry" />
        </mxCell>
        <mxCell id="f27bBOhLKwtl1tu7MUCF-33" value="&lt;font style=&quot;font-size: 16px;&quot;&gt;多级推理引擎&lt;/font&gt;" style="text;html=1;align=center;verticalAlign=middle;whiteSpace=wrap;rounded=0;" vertex="1" parent="1">
          <mxGeometry x="570" y="480" width="40" height="60" as="geometry" />
        </mxCell>
        <mxCell id="f27bBOhLKwtl1tu7MUCF-34" value="&lt;font style=&quot;font-size: 16px;&quot;&gt;模型n&lt;/font&gt;&lt;div style=&quot;font-size: 16px;&quot;&gt;&lt;font style=&quot;font-size: 16px;&quot;&gt;处理&lt;/font&gt;&lt;/div&gt;" style="rounded=1;whiteSpace=wrap;html=1;" vertex="1" parent="1">
          <mxGeometry x="640" y="485" width="90" height="50" as="geometry" />
        </mxCell>
      </root>
    </mxGraphModel>
  </diagram>
</mxfile>
